<svg height="400" viewBox="-10 -11 20 20" width="400" xmlns="http://www.w3.org/2000/svg" xmlns:xlink="http://www.w3.org/1999/xlink">
    <defs>
        <path id="a" d="m-6-3.4641a6 6 0 0 1 12 0z"/>
        <path id="b" d="m0-3.4641a6 6 0 0 0 -6 0 6 6 0 0 0 3 5.1961z"/>
    </defs>
    <path d="m-10-11h20v20h-20" fill="#000"/>
    <use fill="#f00" xlink:href="#a"/>
    <use fill="#00f" transform="matrix(-.5 .8660254 -.8660254 -.5 0 0)" xlink:href="#a"/>
    <use fill="#0f0" transform="matrix(-.5 -.8660254 .8660254 -.5 0 0)" xlink:href="#a"/>
    <use fill="#ff0" xlink:href="#b"/>
    <use fill="#f0f" transform="matrix(-.5 .8660254 -.8660254 -.5 0 0)" xlink:href="#b"/>
    <use fill="#0ff" transform="matrix(-.5 -.8660254 .8660254 -.5 0 0)" xlink:href="#b"/>
    <path d="m0-3.4641a6 6 0 0 1 3 5.1961 6 6 0 0 1 -6 0 6 6 0 0 1 3-5.1961z" fill="#fff"/>
    <text font-size="1px" fill="#000" x="-1px" y="-6px">Red</text>
    <text font-size="1px" fill="#000" x="-8px" y="3px">Green</text>
    <text font-size="1px" fill="#000" x="4px" y="3px">Blue</text>
</svg>

