<svg height="208" viewBox="55.075 95.5 355.4621 208" width="355.46" xmlns="http://www.w3.org/2000/svg" xmlns:xlink="http://www.w3.org/1999/xlink"><marker id="a" markerHeight="8" markerWidth="10" orient="auto" overflow="visible" stroke-miterlimit="10" viewBox="-1 -4 10 8"><path d="m8 0-8-3v6z" fill="#ff2600" stroke="#ff2600" stroke-miterlimit="10"/></marker><g fill="none"><text fill="#000" font-family="Go, sans-serif" font-size="12" font-weight="400" transform="translate(64.5 130.5)"><tspan x="28" y="11">l := line{point{1 + zero, 2 + zero}, point{3 + zero, 4 + zero}}</tspan> <tspan x="28" y="25">tinycall()</tspan> <tspan x="28" y="39">hist := make([]int, 7)</tspan> <tspan x="28" y="53">var reader io.Reader = strings.NewReader(cannedInput)</tspan> <tspan x="28" y="67">scanner := bufio.NewScanner(reader)</tspan> <tspan x="28" y="81">for scanner.Scan() {</tspan> <tspan x="56" y="95">s := scanner.Text()</tspan> <tspan x="56" y="109">i, err := strconv.ParseInt(s, 10, 64)</tspan> <tspan x="56" y="123">if err != nil { ... }</tspan> <tspan x="56" y="137">hist = ensure(int(i), hist)</tspan> <tspan x="56" y="151">hist[int(i)]++</tspan> <tspan x="28" y="165">}</tspan></text><text fill="#000" transform="translate(204.34 100.5)"><tspan fill="#000" font-family="Go, sans-serif" font-size="16" font-weight="400" x="0" y="15">Go 1.10</tspan></text><path d="m71.8 130.7 14 6-14 6z" fill="#00f" fill-opacity=".3309"/><path d="m71.8 130.7 14 6-14 6z" stroke="#000" stroke-linecap="round" stroke-linejoin="round" stroke-width=".25"/><path d="m100.6 243.3 14 6-14 6z" fill="#00f" fill-opacity=".3309"/><path d="m100.6 243.3 14 6-14 6z" stroke="#000" stroke-linecap="round" stroke-linejoin="round" stroke-width=".25"/><path d="m100.6 229.5 14 6-14 6z" fill="#00f" fill-opacity=".3309"/><path d="m100.6 229.5 14 6-14 6z" stroke="#000" stroke-linecap="round" stroke-linejoin="round" stroke-width=".25"/><path d="m71.8 200.74 14 6-14 6z" fill="#00f" fill-opacity=".3309"/><path d="m71.8 200.74 14 6-14 6z" stroke="#000" stroke-linecap="round" stroke-linejoin="round" stroke-width=".25"/><path d="m71.8 172.72 14 6-14 6z" fill="#00f" fill-opacity=".3309"/><path d="m71.8 172.72 14 6-14 6z" stroke="#000" stroke-linecap="round" stroke-linejoin="round" stroke-width=".25"/><path d="m71.8 158.72 14 6-14 6z" fill="#00f" fill-opacity=".3309"/><path d="m71.8 158.72 14 6-14 6z" stroke="#000" stroke-linecap="round" stroke-linejoin="round" stroke-width=".25"/><path d="m55.2 145.4 14 6-14 6z" fill="#00f" fill-opacity=".3309"/><path d="m55.2 145.4 14 6-14 6z" stroke="#000" stroke-linecap="round" stroke-linejoin="round" stroke-width=".25"/><path d="m100.6 270.9 14 6-14 6z" fill="#00f" fill-opacity=".3309"/><path d="m100.6 270.9 14 6-14 6z" stroke="#000" stroke-linecap="round" stroke-linejoin="round" stroke-width=".25"/><path d="m100.6 257.1 14 6-14 6z" fill="#00f" fill-opacity=".3309"/><path d="m100.6 257.1 14 6-14 6z" stroke="#000" stroke-linecap="round" stroke-linejoin="round" stroke-width=".25"/><path d="m55.2 130.7 14 6-14 6z" fill="#00f" fill-opacity=".3309"/><g stroke-linecap="round" stroke-linejoin="round"><path d="m55.2 130.7 14 6-14 6z" stroke="#000" stroke-width=".25"/><g marker-end="url(#a)" stroke="#ff2600"><path d="m61.66 147.95v-2.9031l1.6541-.99387"/><path d="m79.06 139.52v12.93"/><path d="m79.06 209.4 15.321 18.98"/><path d="m79.06 182.66.055 12.1"/></g></g></g></svg>